<mxfile host="app.diagrams.net" agent="Mozilla/5.0 (Windows NT 10.0; Win64; x64) AppleWebKit/537.36 (KHTML, like Gecko) Chrome/133.0.0.0 Safari/537.36" version="25.0.0">
  <diagram name="Page-1" id="uw5cHqz4NT6tiQu6UWn8">
    <mxGraphModel dx="2390" dy="1300" grid="1" gridSize="10" guides="1" tooltips="1" connect="1" arrows="1" fold="1" page="1" pageScale="1" pageWidth="1654" pageHeight="1169" math="0" shadow="0">
      <root>
        <mxCell id="0" />
        <mxCell id="1" parent="0" />
        <mxCell id="jUt0w6Q29d47e5Bl2MSp-6" style="edgeStyle=orthogonalEdgeStyle;rounded=0;orthogonalLoop=1;jettySize=auto;html=1;entryX=0;entryY=0.5;entryDx=0;entryDy=0;" edge="1" parent="1" source="jUt0w6Q29d47e5Bl2MSp-1" target="jUt0w6Q29d47e5Bl2MSp-2">
          <mxGeometry relative="1" as="geometry" />
        </mxCell>
        <mxCell id="jUt0w6Q29d47e5Bl2MSp-1" value="" style="shape=image;verticalLabelPosition=bottom;labelBackgroundColor=default;verticalAlign=top;aspect=fixed;imageAspect=0;image=https://static.vecteezy.com/system/resources/previews/016/716/458/non_2x/spotify-icon-free-png.png;" vertex="1" parent="1">
          <mxGeometry x="40" y="320" width="160" height="160" as="geometry" />
        </mxCell>
        <mxCell id="jUt0w6Q29d47e5Bl2MSp-10" style="edgeStyle=orthogonalEdgeStyle;rounded=0;orthogonalLoop=1;jettySize=auto;html=1;" edge="1" parent="1" source="jUt0w6Q29d47e5Bl2MSp-2">
          <mxGeometry relative="1" as="geometry">
            <mxPoint x="720" y="400" as="targetPoint" />
          </mxGeometry>
        </mxCell>
        <mxCell id="jUt0w6Q29d47e5Bl2MSp-2" value="" style="shape=image;verticalLabelPosition=bottom;labelBackgroundColor=default;verticalAlign=top;aspect=fixed;imageAspect=0;image=https://img.icons8.com/color/512/python.png;" vertex="1" parent="1">
          <mxGeometry x="360" y="320" width="160" height="160" as="geometry" />
        </mxCell>
        <mxCell id="jUt0w6Q29d47e5Bl2MSp-5" value="" style="shape=image;verticalLabelPosition=bottom;labelBackgroundColor=default;verticalAlign=top;aspect=fixed;imageAspect=0;image=https://miro.medium.com/v2/resize:fit:580/1*2GOMAkM6NxV4J97kCtnQLg.png;" vertex="1" parent="1">
          <mxGeometry x="1240" y="320" width="318.99" height="110" as="geometry" />
        </mxCell>
        <mxCell id="jUt0w6Q29d47e5Bl2MSp-8" value="" style="group" vertex="1" connectable="0" parent="1">
          <mxGeometry x="720" y="180" width="390" height="430" as="geometry" />
        </mxCell>
        <mxCell id="jUt0w6Q29d47e5Bl2MSp-3" value="" style="shape=image;verticalLabelPosition=bottom;labelBackgroundColor=default;verticalAlign=top;aspect=fixed;imageAspect=0;image=https://upload.wikimedia.org/wikipedia/commons/thumb/d/de/AirflowLogo.png/1200px-AirflowLogo.png;" vertex="1" parent="jUt0w6Q29d47e5Bl2MSp-8">
          <mxGeometry width="390" height="150.79" as="geometry" />
        </mxCell>
        <mxCell id="jUt0w6Q29d47e5Bl2MSp-4" value="" style="shape=image;verticalLabelPosition=bottom;labelBackgroundColor=default;verticalAlign=top;aspect=fixed;imageAspect=0;image=https://miro.medium.com/v2/resize:fit:360/1*wylmHpaFcR6n17js3ni8Tw.png;" vertex="1" parent="jUt0w6Q29d47e5Bl2MSp-8">
          <mxGeometry x="15" y="200" width="360" height="230" as="geometry" />
        </mxCell>
        <mxCell id="jUt0w6Q29d47e5Bl2MSp-11" value="" style="endArrow=classic;html=1;rounded=0;entryX=0;entryY=0.5;entryDx=0;entryDy=0;" edge="1" parent="1">
          <mxGeometry width="50" height="50" relative="1" as="geometry">
            <mxPoint x="1110" y="390" as="sourcePoint" />
            <mxPoint x="1240" y="390" as="targetPoint" />
          </mxGeometry>
        </mxCell>
        <mxCell id="jUt0w6Q29d47e5Bl2MSp-12" value="&lt;font style=&quot;font-size: 20px;&quot;&gt;&lt;b&gt;Spotify API To Extract Data&lt;/b&gt;&lt;/font&gt;" style="text;html=1;align=center;verticalAlign=middle;whiteSpace=wrap;rounded=0;" vertex="1" parent="1">
          <mxGeometry x="40" y="540" width="150" height="30" as="geometry" />
        </mxCell>
        <mxCell id="jUt0w6Q29d47e5Bl2MSp-13" value="&lt;span style=&quot;font-size: 20px;&quot;&gt;&lt;b&gt;Extract,Transform,Load data using Python Script&lt;/b&gt;&lt;/span&gt;" style="text;html=1;align=center;verticalAlign=middle;whiteSpace=wrap;rounded=0;" vertex="1" parent="1">
          <mxGeometry x="360" y="540" width="150" height="30" as="geometry" />
        </mxCell>
        <mxCell id="jUt0w6Q29d47e5Bl2MSp-14" value="&lt;font style=&quot;font-size: 19px;&quot;&gt;Workflow Orchestration&lt;/font&gt;" style="text;html=1;align=center;verticalAlign=middle;whiteSpace=wrap;rounded=0;" vertex="1" parent="1">
          <mxGeometry x="850" y="120" width="150" height="30" as="geometry" />
        </mxCell>
        <mxCell id="jUt0w6Q29d47e5Bl2MSp-15" value="&lt;span style=&quot;font-size: 19px;&quot;&gt;Airflow running on EC2 machine&lt;/span&gt;" style="text;html=1;align=center;verticalAlign=middle;whiteSpace=wrap;rounded=0;" vertex="1" parent="1">
          <mxGeometry x="850" y="640" width="150" height="30" as="geometry" />
        </mxCell>
        <mxCell id="jUt0w6Q29d47e5Bl2MSp-16" value="&lt;span style=&quot;font-size: 20px;&quot;&gt;&lt;b&gt;Created DAG Using Airflow to Manitaine ETL Workflow&lt;/b&gt;&lt;/span&gt;" style="text;html=1;align=center;verticalAlign=middle;whiteSpace=wrap;rounded=0;" vertex="1" parent="1">
          <mxGeometry x="827" y="720" width="200" height="60" as="geometry" />
        </mxCell>
        <mxCell id="jUt0w6Q29d47e5Bl2MSp-17" value="&lt;span style=&quot;font-size: 20px;&quot;&gt;&lt;b&gt;Loaded Extracted and Transforamed Data Into S3 Bucket&lt;/b&gt;&lt;/span&gt;" style="text;html=1;align=center;verticalAlign=middle;whiteSpace=wrap;rounded=0;" vertex="1" parent="1">
          <mxGeometry x="1299.5" y="470" width="200" height="60" as="geometry" />
        </mxCell>
      </root>
    </mxGraphModel>
  </diagram>
</mxfile>
